<mxfile host="Electron" modified="2023-05-27T16:00:15.079Z" agent="Mozilla/5.0 (Macintosh; Intel Mac OS X 10_15_7) AppleWebKit/537.36 (KHTML, like Gecko) draw.io/21.2.1 Chrome/112.0.5615.87 Electron/24.1.2 Safari/537.36" etag="LjzC36nOJZw-PaFwOyjT" version="21.2.1" type="device">
  <diagram name="Page-1" id="H1nZVYqxkzLZFgEqRADx">
    <mxGraphModel dx="7350" dy="10700" grid="1" gridSize="10" guides="1" tooltips="1" connect="1" arrows="1" fold="1" page="1" pageScale="1" pageWidth="850" pageHeight="1100" math="0" shadow="0">
      <root>
        <mxCell id="0" />
        <mxCell id="1" parent="0" />
        <mxCell id="AsBp8XiL8Dx4Y6rQVwFH-7952" value="R, W: 132, H: 123, ORDER: 18, GC: {56, 22, 21, 33, 1, 20, 23, 8, 25, 4, 7, 17, 11, 13, 3, 10, 67, 65} " style="text;html=1;strokeColor=none;fillColor=none;align=center;verticalAlign=middle;whiteSpace=wrap;rounded=0;flipV=1;" parent="1" vertex="1">
          <mxGeometry x="1420" width="1320" height="30" as="geometry" />
        </mxCell>
        <mxCell id="AsBp8XiL8Dx4Y6rQVwFH-8009" value="R, W: 132, H: 90, ORDER: 18, GC: {39, 24, 26, 7, 6, 11, 1, 5, 8, 43, 9, 17, 4, 21, 51, 13, 47, 34} " style="text;html=1;strokeColor=none;fillColor=none;align=center;verticalAlign=middle;whiteSpace=wrap;rounded=0;flipV=1;" parent="1" vertex="1">
          <mxGeometry x="1440" y="1450" width="1320" height="30" as="geometry" />
        </mxCell>
        <mxCell id="AsBp8XiL8Dx4Y6rQVwFH-23021" value="R, W: 132, H: 130, ORDER: 21, GC: {57, 41, 34, 7, 27, 16, 32, 12, 15, 73, 20, 21, 3, 18, 14, 5, 1, 4, 36, 9, 23} " style="text;html=1;strokeColor=none;fillColor=none;align=center;verticalAlign=middle;whiteSpace=wrap;rounded=0;flipV=1;" parent="1" vertex="1">
          <mxGeometry x="1400" y="2530" width="1320" height="30" as="geometry" />
        </mxCell>
        <mxCell id="AsBp8XiL8Dx4Y6rQVwFH-39167" value="R, W: 132, H: 108, ORDER: 22, GC: {51, 34, 47, 17, 8, 9, 7, 1, 6, 4, 23, 13, 28, 57, 11, 24, 18, 5, 22, 2, 33, 20} " style="text;html=1;strokeColor=none;fillColor=none;align=center;verticalAlign=middle;whiteSpace=wrap;rounded=0;flipV=1;" parent="1" vertex="1">
          <mxGeometry x="1440" y="4130" width="1320" height="30" as="geometry" />
        </mxCell>
        <mxCell id="AsBp8XiL8Dx4Y6rQVwFH-46175" value="R, W: 132, H: 130, ORDER: 24, GC: {60, 35, 37, 15, 20, 10, 5, 19, 18, 1, 17, 25, 11, 9, 2, 7, 13, 24, 70, 22, 16, 6, 34, 28} " style="text;html=1;strokeColor=none;fillColor=none;align=center;verticalAlign=middle;whiteSpace=wrap;rounded=0;flipV=1;" parent="1" vertex="1">
          <mxGeometry x="1420" y="5380" width="1320" height="30" as="geometry" />
        </mxCell>
        <mxCell id="ByM1E-XKquE6v3pqngDO-1" value="" style="group;flipV=1;" vertex="1" connectable="0" parent="1">
          <mxGeometry x="1420" y="50" width="1320" height="1230" as="geometry" />
        </mxCell>
        <mxCell id="761dnnyQ54j-Cl0NHfQN-7953" value="56" style="rounded=0;whiteSpace=wrap;html=1;" parent="ByM1E-XKquE6v3pqngDO-1" vertex="1">
          <mxGeometry y="670" width="560" height="560" as="geometry" />
        </mxCell>
        <mxCell id="761dnnyQ54j-Cl0NHfQN-7954" value="22" style="rounded=0;whiteSpace=wrap;html=1;" parent="ByM1E-XKquE6v3pqngDO-1" vertex="1">
          <mxGeometry x="560" y="1010" width="220" height="220" as="geometry" />
        </mxCell>
        <mxCell id="761dnnyQ54j-Cl0NHfQN-7955" value="21" style="rounded=0;whiteSpace=wrap;html=1;" parent="ByM1E-XKquE6v3pqngDO-1" vertex="1">
          <mxGeometry x="780" y="1020" width="210" height="210" as="geometry" />
        </mxCell>
        <mxCell id="761dnnyQ54j-Cl0NHfQN-7956" value="33" style="rounded=0;whiteSpace=wrap;html=1;" parent="ByM1E-XKquE6v3pqngDO-1" vertex="1">
          <mxGeometry x="990" y="900" width="330" height="330" as="geometry" />
        </mxCell>
        <mxCell id="761dnnyQ54j-Cl0NHfQN-7957" value="1" style="rounded=0;whiteSpace=wrap;html=1;" parent="ByM1E-XKquE6v3pqngDO-1" vertex="1">
          <mxGeometry x="780" y="1010" width="10" height="10" as="geometry" />
        </mxCell>
        <mxCell id="761dnnyQ54j-Cl0NHfQN-7958" value="20" style="rounded=0;whiteSpace=wrap;html=1;" parent="ByM1E-XKquE6v3pqngDO-1" vertex="1">
          <mxGeometry x="790" y="820" width="200" height="200" as="geometry" />
        </mxCell>
        <mxCell id="761dnnyQ54j-Cl0NHfQN-7959" value="23" style="rounded=0;whiteSpace=wrap;html=1;" parent="ByM1E-XKquE6v3pqngDO-1" vertex="1">
          <mxGeometry x="560" y="780" width="230" height="230" as="geometry" />
        </mxCell>
        <mxCell id="761dnnyQ54j-Cl0NHfQN-7960" value="8" style="rounded=0;whiteSpace=wrap;html=1;" parent="ByM1E-XKquE6v3pqngDO-1" vertex="1">
          <mxGeometry x="990" y="820" width="80" height="80" as="geometry" />
        </mxCell>
        <mxCell id="761dnnyQ54j-Cl0NHfQN-7961" value="25" style="rounded=0;whiteSpace=wrap;html=1;" parent="ByM1E-XKquE6v3pqngDO-1" vertex="1">
          <mxGeometry x="1070" y="650" width="250" height="250" as="geometry" />
        </mxCell>
        <mxCell id="761dnnyQ54j-Cl0NHfQN-7962" value="4" style="rounded=0;whiteSpace=wrap;html=1;" parent="ByM1E-XKquE6v3pqngDO-1" vertex="1">
          <mxGeometry x="790" y="780" width="40" height="40" as="geometry" />
        </mxCell>
        <mxCell id="761dnnyQ54j-Cl0NHfQN-7963" value="7" style="rounded=0;whiteSpace=wrap;html=1;" parent="ByM1E-XKquE6v3pqngDO-1" vertex="1">
          <mxGeometry x="830" y="750" width="70" height="70" as="geometry" />
        </mxCell>
        <mxCell id="761dnnyQ54j-Cl0NHfQN-7964" value="17" style="rounded=0;whiteSpace=wrap;html=1;" parent="ByM1E-XKquE6v3pqngDO-1" vertex="1">
          <mxGeometry x="900" y="650" width="170" height="170" as="geometry" />
        </mxCell>
        <mxCell id="761dnnyQ54j-Cl0NHfQN-7965" value="11" style="rounded=0;whiteSpace=wrap;html=1;" parent="ByM1E-XKquE6v3pqngDO-1" vertex="1">
          <mxGeometry x="560" y="670" width="110" height="110" as="geometry" />
        </mxCell>
        <mxCell id="761dnnyQ54j-Cl0NHfQN-7966" value="13" style="rounded=0;whiteSpace=wrap;html=1;" parent="ByM1E-XKquE6v3pqngDO-1" vertex="1">
          <mxGeometry x="670" y="650" width="130" height="130" as="geometry" />
        </mxCell>
        <mxCell id="761dnnyQ54j-Cl0NHfQN-7967" value="3" style="rounded=0;whiteSpace=wrap;html=1;" parent="ByM1E-XKquE6v3pqngDO-1" vertex="1">
          <mxGeometry x="800" y="750" width="30" height="30" as="geometry" />
        </mxCell>
        <mxCell id="761dnnyQ54j-Cl0NHfQN-7968" value="10" style="rounded=0;whiteSpace=wrap;html=1;" parent="ByM1E-XKquE6v3pqngDO-1" vertex="1">
          <mxGeometry x="800" y="650" width="100" height="100" as="geometry" />
        </mxCell>
        <mxCell id="761dnnyQ54j-Cl0NHfQN-7969" value="67" style="rounded=0;whiteSpace=wrap;html=1;" parent="ByM1E-XKquE6v3pqngDO-1" vertex="1">
          <mxGeometry width="670" height="670" as="geometry" />
        </mxCell>
        <mxCell id="761dnnyQ54j-Cl0NHfQN-7970" value="65" style="rounded=0;whiteSpace=wrap;html=1;" parent="ByM1E-XKquE6v3pqngDO-1" vertex="1">
          <mxGeometry x="670" width="650" height="650" as="geometry" />
        </mxCell>
        <mxCell id="ByM1E-XKquE6v3pqngDO-2" value="" style="group;flipV=1;" vertex="1" connectable="0" parent="1">
          <mxGeometry x="1440" y="1500" width="1320" height="900" as="geometry" />
        </mxCell>
        <mxCell id="761dnnyQ54j-Cl0NHfQN-8010" value="39" style="rounded=0;whiteSpace=wrap;html=1;" parent="ByM1E-XKquE6v3pqngDO-2" vertex="1">
          <mxGeometry y="510" width="390" height="390" as="geometry" />
        </mxCell>
        <mxCell id="761dnnyQ54j-Cl0NHfQN-8011" value="24" style="rounded=0;whiteSpace=wrap;html=1;" parent="ByM1E-XKquE6v3pqngDO-2" vertex="1">
          <mxGeometry x="390" y="660" width="240" height="240" as="geometry" />
        </mxCell>
        <mxCell id="761dnnyQ54j-Cl0NHfQN-8012" value="26" style="rounded=0;whiteSpace=wrap;html=1;" parent="ByM1E-XKquE6v3pqngDO-2" vertex="1">
          <mxGeometry x="630" y="640" width="260" height="260" as="geometry" />
        </mxCell>
        <mxCell id="761dnnyQ54j-Cl0NHfQN-8013" value="7" style="rounded=0;whiteSpace=wrap;html=1;" parent="ByM1E-XKquE6v3pqngDO-2" vertex="1">
          <mxGeometry x="390" y="590" width="70" height="70" as="geometry" />
        </mxCell>
        <mxCell id="761dnnyQ54j-Cl0NHfQN-8014" value="6" style="rounded=0;whiteSpace=wrap;html=1;" parent="ByM1E-XKquE6v3pqngDO-2" vertex="1">
          <mxGeometry x="460" y="600" width="60" height="60" as="geometry" />
        </mxCell>
        <mxCell id="761dnnyQ54j-Cl0NHfQN-8015" value="11" style="rounded=0;whiteSpace=wrap;html=1;" parent="ByM1E-XKquE6v3pqngDO-2" vertex="1">
          <mxGeometry x="520" y="550" width="110" height="110" as="geometry" />
        </mxCell>
        <mxCell id="761dnnyQ54j-Cl0NHfQN-8016" value="1" style="rounded=0;whiteSpace=wrap;html=1;" parent="ByM1E-XKquE6v3pqngDO-2" vertex="1">
          <mxGeometry x="460" y="590" width="10" height="10" as="geometry" />
        </mxCell>
        <mxCell id="761dnnyQ54j-Cl0NHfQN-8017" value="5" style="rounded=0;whiteSpace=wrap;html=1;" parent="ByM1E-XKquE6v3pqngDO-2" vertex="1">
          <mxGeometry x="470" y="550" width="50" height="50" as="geometry" />
        </mxCell>
        <mxCell id="761dnnyQ54j-Cl0NHfQN-8018" value="8" style="rounded=0;whiteSpace=wrap;html=1;" parent="ByM1E-XKquE6v3pqngDO-2" vertex="1">
          <mxGeometry x="390" y="510" width="80" height="80" as="geometry" />
        </mxCell>
        <mxCell id="761dnnyQ54j-Cl0NHfQN-8019" value="43" style="rounded=0;whiteSpace=wrap;html=1;" parent="ByM1E-XKquE6v3pqngDO-2" vertex="1">
          <mxGeometry x="890" y="470" width="430" height="430" as="geometry" />
        </mxCell>
        <mxCell id="761dnnyQ54j-Cl0NHfQN-8020" value="9" style="rounded=0;whiteSpace=wrap;html=1;" parent="ByM1E-XKquE6v3pqngDO-2" vertex="1">
          <mxGeometry x="630" y="550" width="90" height="90" as="geometry" />
        </mxCell>
        <mxCell id="761dnnyQ54j-Cl0NHfQN-8021" value="17" style="rounded=0;whiteSpace=wrap;html=1;" parent="ByM1E-XKquE6v3pqngDO-2" vertex="1">
          <mxGeometry x="720" y="470" width="170" height="170" as="geometry" />
        </mxCell>
        <mxCell id="761dnnyQ54j-Cl0NHfQN-8022" value="4" style="rounded=0;whiteSpace=wrap;html=1;" parent="ByM1E-XKquE6v3pqngDO-2" vertex="1">
          <mxGeometry x="470" y="510" width="40" height="40" as="geometry" />
        </mxCell>
        <mxCell id="761dnnyQ54j-Cl0NHfQN-8023" value="21" style="rounded=0;whiteSpace=wrap;html=1;" parent="ByM1E-XKquE6v3pqngDO-2" vertex="1">
          <mxGeometry x="510" y="340" width="210" height="210" as="geometry" />
        </mxCell>
        <mxCell id="761dnnyQ54j-Cl0NHfQN-8024" value="51" style="rounded=0;whiteSpace=wrap;html=1;" parent="ByM1E-XKquE6v3pqngDO-2" vertex="1">
          <mxGeometry width="510" height="510" as="geometry" />
        </mxCell>
        <mxCell id="761dnnyQ54j-Cl0NHfQN-8025" value="13" style="rounded=0;whiteSpace=wrap;html=1;" parent="ByM1E-XKquE6v3pqngDO-2" vertex="1">
          <mxGeometry x="720" y="340" width="130" height="130" as="geometry" />
        </mxCell>
        <mxCell id="761dnnyQ54j-Cl0NHfQN-8026" value="47" style="rounded=0;whiteSpace=wrap;html=1;" parent="ByM1E-XKquE6v3pqngDO-2" vertex="1">
          <mxGeometry x="850" width="470" height="470" as="geometry" />
        </mxCell>
        <mxCell id="761dnnyQ54j-Cl0NHfQN-8027" value="34" style="rounded=0;whiteSpace=wrap;html=1;" parent="ByM1E-XKquE6v3pqngDO-2" vertex="1">
          <mxGeometry x="510" width="340" height="340" as="geometry" />
        </mxCell>
        <mxCell id="ByM1E-XKquE6v3pqngDO-3" value="" style="group;flipV=1;" vertex="1" connectable="0" parent="1">
          <mxGeometry x="1400" y="2580" width="1320" height="1300" as="geometry" />
        </mxCell>
        <mxCell id="761dnnyQ54j-Cl0NHfQN-23022" value="57" style="rounded=0;whiteSpace=wrap;html=1;" parent="ByM1E-XKquE6v3pqngDO-3" vertex="1">
          <mxGeometry y="730" width="570" height="570" as="geometry" />
        </mxCell>
        <mxCell id="761dnnyQ54j-Cl0NHfQN-23023" value="41" style="rounded=0;whiteSpace=wrap;html=1;" parent="ByM1E-XKquE6v3pqngDO-3" vertex="1">
          <mxGeometry x="570" y="890" width="410" height="410" as="geometry" />
        </mxCell>
        <mxCell id="761dnnyQ54j-Cl0NHfQN-23024" value="34" style="rounded=0;whiteSpace=wrap;html=1;" parent="ByM1E-XKquE6v3pqngDO-3" vertex="1">
          <mxGeometry x="980" y="960" width="340" height="340" as="geometry" />
        </mxCell>
        <mxCell id="761dnnyQ54j-Cl0NHfQN-23025" value="7" style="rounded=0;whiteSpace=wrap;html=1;" parent="ByM1E-XKquE6v3pqngDO-3" vertex="1">
          <mxGeometry x="980" y="890" width="70" height="70" as="geometry" />
        </mxCell>
        <mxCell id="761dnnyQ54j-Cl0NHfQN-23026" value="27" style="rounded=0;whiteSpace=wrap;html=1;" parent="ByM1E-XKquE6v3pqngDO-3" vertex="1">
          <mxGeometry x="1050" y="690" width="270" height="270" as="geometry" />
        </mxCell>
        <mxCell id="761dnnyQ54j-Cl0NHfQN-23027" value="16" style="rounded=0;whiteSpace=wrap;html=1;" parent="ByM1E-XKquE6v3pqngDO-3" vertex="1">
          <mxGeometry x="570" y="730" width="160" height="160" as="geometry" />
        </mxCell>
        <mxCell id="761dnnyQ54j-Cl0NHfQN-23028" value="32" style="rounded=0;whiteSpace=wrap;html=1;" parent="ByM1E-XKquE6v3pqngDO-3" vertex="1">
          <mxGeometry x="730" y="570" width="320" height="320" as="geometry" />
        </mxCell>
        <mxCell id="761dnnyQ54j-Cl0NHfQN-23029" value="12" style="rounded=0;whiteSpace=wrap;html=1;" parent="ByM1E-XKquE6v3pqngDO-3" vertex="1">
          <mxGeometry x="1050" y="570" width="120" height="120" as="geometry" />
        </mxCell>
        <mxCell id="761dnnyQ54j-Cl0NHfQN-23030" value="15" style="rounded=0;whiteSpace=wrap;html=1;" parent="ByM1E-XKquE6v3pqngDO-3" vertex="1">
          <mxGeometry x="1170" y="540" width="150" height="150" as="geometry" />
        </mxCell>
        <mxCell id="761dnnyQ54j-Cl0NHfQN-23031" value="73" style="rounded=0;whiteSpace=wrap;html=1;" parent="ByM1E-XKquE6v3pqngDO-3" vertex="1">
          <mxGeometry width="730" height="730" as="geometry" />
        </mxCell>
        <mxCell id="761dnnyQ54j-Cl0NHfQN-23032" value="20" style="rounded=0;whiteSpace=wrap;html=1;" parent="ByM1E-XKquE6v3pqngDO-3" vertex="1">
          <mxGeometry x="730" y="370" width="200" height="200" as="geometry" />
        </mxCell>
        <mxCell id="761dnnyQ54j-Cl0NHfQN-23033" value="21" style="rounded=0;whiteSpace=wrap;html=1;" parent="ByM1E-XKquE6v3pqngDO-3" vertex="1">
          <mxGeometry x="930" y="360" width="210" height="210" as="geometry" />
        </mxCell>
        <mxCell id="761dnnyQ54j-Cl0NHfQN-23034" value="3" style="rounded=0;whiteSpace=wrap;html=1;" parent="ByM1E-XKquE6v3pqngDO-3" vertex="1">
          <mxGeometry x="1140" y="540" width="30" height="30" as="geometry" />
        </mxCell>
        <mxCell id="761dnnyQ54j-Cl0NHfQN-23035" value="18" style="rounded=0;whiteSpace=wrap;html=1;" parent="ByM1E-XKquE6v3pqngDO-3" vertex="1">
          <mxGeometry x="1140" y="360" width="180" height="180" as="geometry" />
        </mxCell>
        <mxCell id="761dnnyQ54j-Cl0NHfQN-23036" value="14" style="rounded=0;whiteSpace=wrap;html=1;" parent="ByM1E-XKquE6v3pqngDO-3" vertex="1">
          <mxGeometry x="730" y="230" width="140" height="140" as="geometry" />
        </mxCell>
        <mxCell id="761dnnyQ54j-Cl0NHfQN-23037" value="5" style="rounded=0;whiteSpace=wrap;html=1;" parent="ByM1E-XKquE6v3pqngDO-3" vertex="1">
          <mxGeometry x="870" y="320" width="50" height="50" as="geometry" />
        </mxCell>
        <mxCell id="761dnnyQ54j-Cl0NHfQN-23038" value="1" style="rounded=0;whiteSpace=wrap;html=1;" parent="ByM1E-XKquE6v3pqngDO-3" vertex="1">
          <mxGeometry x="920" y="360" width="10" height="10" as="geometry" />
        </mxCell>
        <mxCell id="761dnnyQ54j-Cl0NHfQN-23039" value="4" style="rounded=0;whiteSpace=wrap;html=1;" parent="ByM1E-XKquE6v3pqngDO-3" vertex="1">
          <mxGeometry x="920" y="320" width="40" height="40" as="geometry" />
        </mxCell>
        <mxCell id="761dnnyQ54j-Cl0NHfQN-23040" value="36" style="rounded=0;whiteSpace=wrap;html=1;" parent="ByM1E-XKquE6v3pqngDO-3" vertex="1">
          <mxGeometry x="960" width="360" height="360" as="geometry" />
        </mxCell>
        <mxCell id="761dnnyQ54j-Cl0NHfQN-23041" value="9" style="rounded=0;whiteSpace=wrap;html=1;" parent="ByM1E-XKquE6v3pqngDO-3" vertex="1">
          <mxGeometry x="870" y="230" width="90" height="90" as="geometry" />
        </mxCell>
        <mxCell id="761dnnyQ54j-Cl0NHfQN-23042" value="23" style="rounded=0;whiteSpace=wrap;html=1;" parent="ByM1E-XKquE6v3pqngDO-3" vertex="1">
          <mxGeometry x="730" width="230" height="230" as="geometry" />
        </mxCell>
        <mxCell id="ByM1E-XKquE6v3pqngDO-4" value="" style="group;flipV=1;" vertex="1" connectable="0" parent="1">
          <mxGeometry x="1440" y="4180" width="1320" height="1080" as="geometry" />
        </mxCell>
        <mxCell id="761dnnyQ54j-Cl0NHfQN-39168" value="51" style="rounded=0;whiteSpace=wrap;html=1;flipV=0;" parent="ByM1E-XKquE6v3pqngDO-4" vertex="1">
          <mxGeometry y="570" width="510" height="510" as="geometry" />
        </mxCell>
        <mxCell id="761dnnyQ54j-Cl0NHfQN-39169" value="34" style="rounded=0;whiteSpace=wrap;html=1;" parent="ByM1E-XKquE6v3pqngDO-4" vertex="1">
          <mxGeometry x="510" y="740" width="340" height="340" as="geometry" />
        </mxCell>
        <mxCell id="761dnnyQ54j-Cl0NHfQN-39170" value="47" style="rounded=0;whiteSpace=wrap;html=1;" parent="ByM1E-XKquE6v3pqngDO-4" vertex="1">
          <mxGeometry x="850" y="610" width="470" height="470" as="geometry" />
        </mxCell>
        <mxCell id="761dnnyQ54j-Cl0NHfQN-39171" value="17" style="rounded=0;whiteSpace=wrap;html=1;" parent="ByM1E-XKquE6v3pqngDO-4" vertex="1">
          <mxGeometry x="510" y="570" width="170" height="170" as="geometry" />
        </mxCell>
        <mxCell id="761dnnyQ54j-Cl0NHfQN-39172" value="8" style="rounded=0;whiteSpace=wrap;html=1;" parent="ByM1E-XKquE6v3pqngDO-4" vertex="1">
          <mxGeometry x="680" y="660" width="80" height="80" as="geometry" />
        </mxCell>
        <mxCell id="761dnnyQ54j-Cl0NHfQN-39173" value="9" style="rounded=0;whiteSpace=wrap;html=1;" parent="ByM1E-XKquE6v3pqngDO-4" vertex="1">
          <mxGeometry x="760" y="650" width="90" height="90" as="geometry" />
        </mxCell>
        <mxCell id="761dnnyQ54j-Cl0NHfQN-39174" value="7" style="rounded=0;whiteSpace=wrap;html=1;" parent="ByM1E-XKquE6v3pqngDO-4" vertex="1">
          <mxGeometry x="680" y="590" width="70" height="70" as="geometry" />
        </mxCell>
        <mxCell id="761dnnyQ54j-Cl0NHfQN-39175" value="1" style="rounded=0;whiteSpace=wrap;html=1;" parent="ByM1E-XKquE6v3pqngDO-4" vertex="1">
          <mxGeometry x="750" y="650" width="10" height="10" as="geometry" />
        </mxCell>
        <mxCell id="761dnnyQ54j-Cl0NHfQN-39176" value="6" style="rounded=0;whiteSpace=wrap;html=1;" parent="ByM1E-XKquE6v3pqngDO-4" vertex="1">
          <mxGeometry x="750" y="590" width="60" height="60" as="geometry" />
        </mxCell>
        <mxCell id="761dnnyQ54j-Cl0NHfQN-39177" value="4" style="rounded=0;whiteSpace=wrap;html=1;" parent="ByM1E-XKquE6v3pqngDO-4" vertex="1">
          <mxGeometry x="810" y="610" width="40" height="40" as="geometry" />
        </mxCell>
        <mxCell id="761dnnyQ54j-Cl0NHfQN-39178" value="23" style="rounded=0;whiteSpace=wrap;html=1;" parent="ByM1E-XKquE6v3pqngDO-4" vertex="1">
          <mxGeometry x="810" y="380" width="230" height="230" as="geometry" />
        </mxCell>
        <mxCell id="761dnnyQ54j-Cl0NHfQN-39179" value="13" style="rounded=0;whiteSpace=wrap;html=1;" parent="ByM1E-XKquE6v3pqngDO-4" vertex="1">
          <mxGeometry x="680" y="460" width="130" height="130" as="geometry" />
        </mxCell>
        <mxCell id="761dnnyQ54j-Cl0NHfQN-39180" value="28" style="rounded=0;whiteSpace=wrap;html=1;" parent="ByM1E-XKquE6v3pqngDO-4" vertex="1">
          <mxGeometry x="1040" y="330" width="280" height="280" as="geometry" />
        </mxCell>
        <mxCell id="761dnnyQ54j-Cl0NHfQN-39181" value="57" style="rounded=0;whiteSpace=wrap;html=1;flipV=0;" parent="ByM1E-XKquE6v3pqngDO-4" vertex="1">
          <mxGeometry width="570" height="570" as="geometry" />
        </mxCell>
        <mxCell id="761dnnyQ54j-Cl0NHfQN-39182" value="11" style="rounded=0;whiteSpace=wrap;html=1;" parent="ByM1E-XKquE6v3pqngDO-4" vertex="1">
          <mxGeometry x="570" y="460" width="110" height="110" as="geometry" />
        </mxCell>
        <mxCell id="761dnnyQ54j-Cl0NHfQN-39183" value="24" style="rounded=0;whiteSpace=wrap;html=1;" parent="ByM1E-XKquE6v3pqngDO-4" vertex="1">
          <mxGeometry x="570" y="220" width="240" height="240" as="geometry" />
        </mxCell>
        <mxCell id="761dnnyQ54j-Cl0NHfQN-39184" value="18" style="rounded=0;whiteSpace=wrap;html=1;" parent="ByM1E-XKquE6v3pqngDO-4" vertex="1">
          <mxGeometry x="810" y="200" width="180" height="180" as="geometry" />
        </mxCell>
        <mxCell id="761dnnyQ54j-Cl0NHfQN-39185" value="5" style="rounded=0;whiteSpace=wrap;html=1;" parent="ByM1E-XKquE6v3pqngDO-4" vertex="1">
          <mxGeometry x="990" y="330" width="50" height="50" as="geometry" />
        </mxCell>
        <mxCell id="761dnnyQ54j-Cl0NHfQN-39186" value="22" style="rounded=0;whiteSpace=wrap;html=1;" parent="ByM1E-XKquE6v3pqngDO-4" vertex="1">
          <mxGeometry x="570" width="220" height="220" as="geometry" />
        </mxCell>
        <mxCell id="761dnnyQ54j-Cl0NHfQN-39187" value="2" style="rounded=0;whiteSpace=wrap;html=1;" parent="ByM1E-XKquE6v3pqngDO-4" vertex="1">
          <mxGeometry x="790" y="200" width="20" height="20" as="geometry" />
        </mxCell>
        <mxCell id="761dnnyQ54j-Cl0NHfQN-39188" value="33" style="rounded=0;whiteSpace=wrap;html=1;" parent="ByM1E-XKquE6v3pqngDO-4" vertex="1">
          <mxGeometry x="990" width="330" height="330" as="geometry" />
        </mxCell>
        <mxCell id="761dnnyQ54j-Cl0NHfQN-39189" value="20" style="rounded=0;whiteSpace=wrap;html=1;" parent="ByM1E-XKquE6v3pqngDO-4" vertex="1">
          <mxGeometry x="790" width="200" height="200" as="geometry" />
        </mxCell>
        <mxCell id="ByM1E-XKquE6v3pqngDO-5" value="" style="group;flipV=1;" vertex="1" connectable="0" parent="1">
          <mxGeometry x="1420" y="5430" width="1320" height="1300" as="geometry" />
        </mxCell>
        <mxCell id="761dnnyQ54j-Cl0NHfQN-46176" value="60" style="rounded=0;whiteSpace=wrap;html=1;flipV=0;" parent="ByM1E-XKquE6v3pqngDO-5" vertex="1">
          <mxGeometry y="700" width="600" height="600" as="geometry" />
        </mxCell>
        <mxCell id="761dnnyQ54j-Cl0NHfQN-46177" value="35" style="rounded=0;whiteSpace=wrap;html=1;" parent="ByM1E-XKquE6v3pqngDO-5" vertex="1">
          <mxGeometry x="600" y="950" width="350" height="350" as="geometry" />
        </mxCell>
        <mxCell id="761dnnyQ54j-Cl0NHfQN-46178" value="37" style="rounded=0;whiteSpace=wrap;html=1;" parent="ByM1E-XKquE6v3pqngDO-5" vertex="1">
          <mxGeometry x="950" y="930" width="370" height="370" as="geometry" />
        </mxCell>
        <mxCell id="761dnnyQ54j-Cl0NHfQN-46179" value="15" style="rounded=0;whiteSpace=wrap;html=1;" parent="ByM1E-XKquE6v3pqngDO-5" vertex="1">
          <mxGeometry x="600" y="800" width="150" height="150" as="geometry" />
        </mxCell>
        <mxCell id="761dnnyQ54j-Cl0NHfQN-46180" value="20" style="rounded=0;whiteSpace=wrap;html=1;" parent="ByM1E-XKquE6v3pqngDO-5" vertex="1">
          <mxGeometry x="750" y="750" width="200" height="200" as="geometry" />
        </mxCell>
        <mxCell id="761dnnyQ54j-Cl0NHfQN-46181" value="10" style="rounded=0;whiteSpace=wrap;html=1;" parent="ByM1E-XKquE6v3pqngDO-5" vertex="1">
          <mxGeometry x="600" y="700" width="100" height="100" as="geometry" />
        </mxCell>
        <mxCell id="761dnnyQ54j-Cl0NHfQN-46182" value="5" style="rounded=0;whiteSpace=wrap;html=1;" parent="ByM1E-XKquE6v3pqngDO-5" vertex="1">
          <mxGeometry x="700" y="750" width="50" height="50" as="geometry" />
        </mxCell>
        <mxCell id="761dnnyQ54j-Cl0NHfQN-46183" value="19" style="rounded=0;whiteSpace=wrap;html=1;" parent="ByM1E-XKquE6v3pqngDO-5" vertex="1">
          <mxGeometry x="950" y="740" width="190" height="190" as="geometry" />
        </mxCell>
        <mxCell id="761dnnyQ54j-Cl0NHfQN-46184" value="18" style="rounded=0;whiteSpace=wrap;html=1;" parent="ByM1E-XKquE6v3pqngDO-5" vertex="1">
          <mxGeometry x="1140" y="750" width="180" height="180" as="geometry" />
        </mxCell>
        <mxCell id="761dnnyQ54j-Cl0NHfQN-46185" value="1" style="rounded=0;whiteSpace=wrap;html=1;" parent="ByM1E-XKquE6v3pqngDO-5" vertex="1">
          <mxGeometry x="1140" y="740" width="10" height="10" as="geometry" />
        </mxCell>
        <mxCell id="761dnnyQ54j-Cl0NHfQN-46186" value="17" style="rounded=0;whiteSpace=wrap;html=1;" parent="ByM1E-XKquE6v3pqngDO-5" vertex="1">
          <mxGeometry x="1150" y="580" width="170" height="170" as="geometry" />
        </mxCell>
        <mxCell id="761dnnyQ54j-Cl0NHfQN-46187" value="25" style="rounded=0;whiteSpace=wrap;html=1;" parent="ByM1E-XKquE6v3pqngDO-5" vertex="1">
          <mxGeometry x="700" y="500" width="250" height="250" as="geometry" />
        </mxCell>
        <mxCell id="761dnnyQ54j-Cl0NHfQN-46188" value="11" style="rounded=0;whiteSpace=wrap;html=1;" parent="ByM1E-XKquE6v3pqngDO-5" vertex="1">
          <mxGeometry x="950" y="630" width="110" height="110" as="geometry" />
        </mxCell>
        <mxCell id="761dnnyQ54j-Cl0NHfQN-46189" value="9" style="rounded=0;whiteSpace=wrap;html=1;" parent="ByM1E-XKquE6v3pqngDO-5" vertex="1">
          <mxGeometry x="1060" y="650" width="90" height="90" as="geometry" />
        </mxCell>
        <mxCell id="761dnnyQ54j-Cl0NHfQN-46190" value="2" style="rounded=0;whiteSpace=wrap;html=1;" parent="ByM1E-XKquE6v3pqngDO-5" vertex="1">
          <mxGeometry x="1060" y="630" width="20" height="20" as="geometry" />
        </mxCell>
        <mxCell id="761dnnyQ54j-Cl0NHfQN-46191" value="7" style="rounded=0;whiteSpace=wrap;html=1;" parent="ByM1E-XKquE6v3pqngDO-5" vertex="1">
          <mxGeometry x="1080" y="580" width="70" height="70" as="geometry" />
        </mxCell>
        <mxCell id="761dnnyQ54j-Cl0NHfQN-46192" value="13" style="rounded=0;whiteSpace=wrap;html=1;" parent="ByM1E-XKquE6v3pqngDO-5" vertex="1">
          <mxGeometry x="950" y="500" width="130" height="130" as="geometry" />
        </mxCell>
        <mxCell id="761dnnyQ54j-Cl0NHfQN-46193" value="24" style="rounded=0;whiteSpace=wrap;html=1;" parent="ByM1E-XKquE6v3pqngDO-5" vertex="1">
          <mxGeometry x="1080" y="340" width="240" height="240" as="geometry" />
        </mxCell>
        <mxCell id="761dnnyQ54j-Cl0NHfQN-46194" value="70" style="rounded=0;whiteSpace=wrap;html=1;" parent="ByM1E-XKquE6v3pqngDO-5" vertex="1">
          <mxGeometry width="700" height="700" as="geometry" />
        </mxCell>
        <mxCell id="761dnnyQ54j-Cl0NHfQN-46195" value="22" style="rounded=0;whiteSpace=wrap;html=1;" parent="ByM1E-XKquE6v3pqngDO-5" vertex="1">
          <mxGeometry x="700" y="280" width="220" height="220" as="geometry" />
        </mxCell>
        <mxCell id="761dnnyQ54j-Cl0NHfQN-46196" value="16" style="rounded=0;whiteSpace=wrap;html=1;" parent="ByM1E-XKquE6v3pqngDO-5" vertex="1">
          <mxGeometry x="920" y="340" width="160" height="160" as="geometry" />
        </mxCell>
        <mxCell id="761dnnyQ54j-Cl0NHfQN-46197" value="6" style="rounded=0;whiteSpace=wrap;html=1;" parent="ByM1E-XKquE6v3pqngDO-5" vertex="1">
          <mxGeometry x="920" y="280" width="60" height="60" as="geometry" />
        </mxCell>
        <mxCell id="761dnnyQ54j-Cl0NHfQN-46198" value="34" style="rounded=0;whiteSpace=wrap;html=1;" parent="ByM1E-XKquE6v3pqngDO-5" vertex="1">
          <mxGeometry x="980" width="340" height="340" as="geometry" />
        </mxCell>
        <mxCell id="761dnnyQ54j-Cl0NHfQN-46199" value="28" style="rounded=0;whiteSpace=wrap;html=1;" parent="ByM1E-XKquE6v3pqngDO-5" vertex="1">
          <mxGeometry x="700" width="280" height="280" as="geometry" />
        </mxCell>
      </root>
    </mxGraphModel>
  </diagram>
</mxfile>
